<svg version="1.1" id="Layer_1" xmlns="http://www.w3.org/2000/svg" xmlns:xlink="http://www.w3.org/1999/xlink" x="0px" y="0px"
	 width="100%" viewBox="0 0 500 500" enable-background="new 0 0 500 500" xml:space="preserve">
<path fill="#FCFDF2" opacity="1.000000" stroke="none" 
	d="
M236.000000,501.000000 
	C157.333359,501.000000 79.166702,501.000000 1.000042,501.000000 
	C1.000028,334.333405 1.000028,167.666779 1.000014,1.000131 
	C167.666565,1.000088 334.333130,1.000088 500.999756,1.000044 
	C500.999847,167.666519 500.999847,334.333038 500.999939,500.999786 
	C412.833344,501.000000 324.666656,501.000000 236.000000,501.000000 
M317.707581,343.730164 
	C321.514496,340.890717 325.917389,338.583008 329.015198,335.110901 
	C337.884460,325.169922 344.558868,313.810364 347.777802,300.746735 
	C351.330597,286.328156 361.263672,279.027222 374.956085,275.984619 
	C389.239105,272.810791 400.302246,265.023285 409.214417,253.619339 
	C421.338135,238.105927 421.353424,206.709152 408.742584,191.960083 
	C400.733521,182.593063 392.580994,173.935516 379.221649,170.941269 
	C365.557068,167.127243 352.451721,168.406174 339.825623,175.001816 
	C333.194763,178.465637 327.420807,184.223389 318.208191,183.090973 
	C313.214294,180.669250 307.880463,178.761444 303.292023,175.726700 
	C290.929779,167.550491 277.463745,162.630920 262.747925,162.450790 
	C255.834961,162.366150 248.892548,164.688446 241.177521,165.961639 
	C234.626266,168.725647 228.057556,171.449173 221.528915,174.265594 
	C215.583069,176.830658 209.418503,178.223038 203.154739,176.142700 
	C196.878815,174.058380 190.913910,171.037766 184.638351,168.952042 
	C178.565842,166.933838 172.271332,165.583557 165.471985,163.396988 
	C160.415451,163.256790 155.352173,162.878036 150.303604,163.020355 
	C133.987015,163.480255 119.932541,170.072693 108.046638,180.676270 
	C85.806938,200.516617 78.865425,232.057388 89.351906,259.382172 
	C94.311226,272.304749 102.181389,283.271851 114.313934,291.608398 
	C129.739777,301.987457 146.486130,306.718109 165.186996,304.226105 
	C174.112045,303.036774 182.675842,298.754242 192.777588,300.981750 
	C202.759857,303.297394 209.800064,309.123688 214.710129,318.157959 
	C223.494629,334.321014 235.909729,346.512207 254.498596,352.521576 
	C276.811920,360.397247 297.599091,356.990265 317.707581,343.730164 
M187.091660,159.162079 
	C191.060959,166.230682 198.026474,169.055923 205.992218,166.828278 
	C211.380112,165.321518 216.049805,158.501862 216.001480,152.210632 
	C215.944244,144.755920 211.627975,138.996231 204.511566,137.398163 
	C198.994583,136.159241 193.877274,137.297577 189.963745,141.605209 
	C185.515457,146.501480 183.843506,152.088013 187.091660,159.162079 
M373.059753,297.363464 
	C367.195557,300.631287 365.329529,306.007446 366.183990,312.155487 
	C366.977325,317.863342 370.887115,322.014130 376.152405,323.610382 
	C381.781433,325.316864 387.274841,323.988953 391.446960,319.109497 
	C395.928284,313.868378 396.174866,306.858887 391.858490,300.763397 
	C387.783020,295.008118 381.423431,293.658722 373.059753,297.363464 
M289.166321,151.617386 
	C293.832245,153.874298 298.913788,152.583054 301.157898,148.570251 
	C303.754486,143.927200 302.756378,139.118454 298.629303,136.387894 
	C294.001129,133.325790 289.261292,134.137299 286.036407,138.543915 
	C283.047729,142.627777 283.789307,146.251251 289.166321,151.617386 
z"/>
<path fill="#F7C6D8" opacity="1.000000" stroke="none" 
	d="
M254.006104,351.974579 
	C235.909729,346.512207 223.494629,334.321014 214.710129,318.157959 
	C209.800064,309.123688 202.759857,303.297394 192.390533,300.516937 
	C192.835068,295.703156 193.066513,291.126740 194.611969,287.048309 
	C199.046417,275.345917 204.180389,263.910400 208.725021,252.247498 
	C213.639694,239.635025 218.107849,226.849243 222.940384,214.203873 
	C227.528976,202.196808 232.334457,190.272598 237.049606,178.313965 
	C238.679749,174.179550 240.325073,170.051147 241.963470,165.920013 
	C248.892548,164.688446 255.834961,162.366150 262.747925,162.450790 
	C277.463745,162.630920 290.929779,167.550491 303.292023,175.726700 
	C307.880463,178.761444 313.214294,180.669250 318.558441,183.476074 
	C313.767792,196.604187 308.553955,209.318680 303.550751,222.115494 
	C302.607452,224.528152 302.502899,227.268723 301.567352,229.899719 
	C298.827972,230.219070 296.539185,230.627380 294.235565,230.744583 
	C290.495972,230.934830 286.495422,231.820190 283.050049,230.843033 
	C273.865326,228.238068 266.467041,230.628998 260.750458,238.290741 
	C255.275101,245.629105 254.479584,253.798843 254.965210,262.452576 
	C255.399521,270.191742 260.120819,275.984344 267.659821,277.708618 
	C273.933228,279.143402 280.128296,275.555420 281.666473,269.596344 
	C283.311523,263.223297 280.894531,259.856628 273.255341,257.880310 
	C267.658966,256.432495 264.468109,252.843735 265.177216,248.794724 
	C266.270599,242.551315 270.561188,238.787415 276.257690,238.985184 
	C278.694336,239.069763 281.136353,238.999329 285.013336,238.999329 
	C285.013336,247.282074 285.009888,255.777542 285.014893,264.273010 
	C285.017181,268.176697 285.036011,272.080353 284.720428,276.127838 
	C283.384918,277.306091 281.959839,278.166321 281.441376,279.405792 
	C279.417572,284.244324 277.704132,289.211823 275.832336,294.114960 
	C271.886200,304.451599 267.872589,314.762604 263.963196,325.113037 
	C260.589142,334.046082 257.321045,343.019196 254.006104,351.974579 
M229.031311,227.030594 
	C227.366455,235.565521 235.061813,241.354218 235.542770,249.369522 
	C234.144928,248.338211 233.127945,247.121506 232.396500,245.752258 
	C230.544464,242.285248 227.784271,240.286469 223.873642,241.293488 
	C219.867035,242.325226 218.084671,245.334595 217.947205,249.505539 
	C217.640915,258.799225 223.388702,267.575806 232.629044,269.526031 
	C245.170181,272.172913 253.354523,268.053711 252.786438,254.133850 
	C252.653763,250.882614 250.606934,247.566666 248.941299,244.556900 
	C246.856796,240.790268 244.013245,237.438034 241.999893,233.640488 
	C241.205002,232.141174 241.763657,229.924240 241.705978,228.034073 
	C243.538315,228.044464 245.463593,227.703003 247.179031,228.156036 
	C249.232422,228.698349 251.033432,230.362976 253.082367,230.700790 
	C254.617340,230.953857 257.005157,230.356201 257.841187,229.250839 
	C258.602570,228.244217 258.384979,225.629120 257.562439,224.439880 
	C253.597214,218.706879 247.438263,217.115677 240.963150,217.113480 
	C234.950836,217.111435 231.297104,220.865799 229.031311,227.030594 
z"/>
<path fill="#FACADB" opacity="1.000000" stroke="none" 
	d="
M241.570496,165.940826 
	C240.325073,170.051147 238.679749,174.179550 237.049606,178.313965 
	C232.334457,190.272598 227.528976,202.196808 222.940384,214.203873 
	C218.107849,226.849243 213.639694,239.635025 208.725021,252.247498 
	C204.180389,263.910400 199.046417,275.345917 194.611969,287.048309 
	C193.066513,291.126740 192.835068,295.703156 192.006836,300.482483 
	C182.675842,298.754242 174.112045,303.036774 165.186996,304.226105 
	C146.486130,306.718109 129.739777,301.987457 114.310287,290.952576 
	C114.847351,287.917053 115.110626,285.430359 115.979553,283.177277 
	C118.858459,275.712494 121.955605,268.331909 125.135941,260.632935 
	C135.073944,253.459869 136.773956,248.876480 134.371155,233.936646 
	C135.819489,231.536819 136.771408,229.118912 138.045319,226.884567 
	C140.315552,222.902725 139.713699,217.233231 144.978912,215.421219 
	C143.475494,222.961166 141.882584,230.065796 140.489517,237.209381 
	C139.795212,240.769684 139.298950,244.388504 139.022980,248.004517 
	C138.776428,251.235001 140.544418,253.035889 143.830902,252.967026 
	C145.974777,252.922119 148.150497,252.786392 150.246521,252.365524 
	C157.034485,251.002472 158.227386,249.189575 156.627182,242.481430 
	C155.675232,238.490845 154.404999,234.576187 153.295120,230.687897 
	C158.358322,228.124405 158.768448,228.441147 159.067734,233.537277 
	C159.309769,237.658432 159.832214,241.777893 160.492462,245.855652 
	C161.183411,250.122925 163.872849,251.697723 168.086288,250.800735 
	C169.701248,250.456924 171.544189,250.618835 172.922577,249.878662 
	C174.481400,249.041580 176.570343,247.576889 176.763260,246.158554 
	C177.126953,243.484467 176.963013,240.338608 175.845779,237.933578 
	C171.442459,228.454636 166.778046,219.082993 161.837143,209.871826 
	C157.264618,201.347412 154.218018,200.933304 146.888672,206.741714 
	C146.875580,204.732193 146.702972,202.959396 147.224533,201.422089 
	C147.787384,199.763031 149.226395,198.416031 149.890717,196.774124 
	C153.524338,187.793411 156.855118,178.684677 160.716278,169.805313 
	C161.715286,167.507950 164.246780,165.876968 166.074341,163.939896 
	C172.271332,165.583557 178.565842,166.933838 184.638351,168.952042 
	C190.913910,171.037766 196.878815,174.058380 203.154739,176.142700 
	C209.418503,178.223038 215.583069,176.830658 221.528915,174.265594 
	C228.057556,171.449173 234.626266,168.725647 241.570496,165.940826 
M199.515152,254.901901 
	C203.790588,254.818130 205.412521,252.511185 205.022705,248.426559 
	C204.676804,244.802200 204.579346,241.146851 204.079163,237.545898 
	C202.821259,228.490067 205.042786,224.237762 213.409836,219.784592 
	C215.140930,218.863235 217.062973,217.769028 218.100937,216.220764 
	C219.226837,214.541351 220.431824,211.834717 219.814423,210.291077 
	C218.518250,207.050217 215.276733,207.928635 212.959518,209.246338 
	C209.953888,210.955551 207.166733,213.117386 204.506302,215.347733 
	C201.252731,218.075272 199.647659,216.769592 198.238922,213.457718 
	C197.011398,210.571899 195.945480,207.319916 193.831680,205.206253 
	C192.251236,203.625931 188.745331,202.477951 186.757294,203.135208 
	C183.462112,204.224640 183.683075,207.364899 185.547455,210.153381 
	C186.563187,211.672546 187.364777,213.352478 188.497650,214.772659 
	C193.108887,220.553238 192.911346,226.638168 190.010757,233.043793 
	C188.092621,237.279755 186.328735,241.587280 184.568649,245.892548 
	C183.287262,249.026917 184.481323,251.124420 187.624039,252.001434 
	C191.291824,253.024933 195.016541,253.844345 199.515152,254.901901 
z"/>
<path fill="#F5C2D4" opacity="1.000000" stroke="none" 
	d="
M302.011292,229.857971 
	C302.502899,227.268723 302.607452,224.528152 303.550751,222.115494 
	C308.553955,209.318680 313.767792,196.604187 318.956909,183.520050 
	C327.420807,184.223389 333.194763,178.465637 339.825623,175.001816 
	C352.451721,168.406174 365.557068,167.127243 379.561707,171.389252 
	C378.678680,175.617752 377.561462,179.436539 376.210907,183.170959 
	C373.205078,191.482178 370.082550,199.751190 366.813995,208.303635 
	C361.533539,213.376617 356.650269,218.218094 348.719543,218.167862 
	C346.276367,218.152374 343.955353,221.091507 341.338623,221.844040 
	C334.871429,223.703995 332.666351,226.921509 336.060181,232.719742 
	C341.965302,242.808411 344.229858,253.950104 346.703003,264.991821 
	C345.913025,264.996735 345.461639,264.998413 344.853333,264.677155 
	C340.472321,255.605804 336.421448,246.765335 331.866760,238.192566 
	C331.032318,236.621994 328.077881,235.300232 326.237366,235.456604 
	C325.051666,235.557343 323.163330,238.599762 323.222382,240.265900 
	C323.536835,249.136795 324.277130,257.997253 325.048035,266.845795 
	C325.609161,273.286652 329.058716,275.621704 335.378357,274.052826 
	C337.613556,273.497925 339.797180,272.735291 341.997009,272.438477 
	C340.737061,275.445526 339.289032,278.008881 338.275024,280.733795 
	C336.502533,285.496887 335.216064,290.446472 333.338654,295.163818 
	C327.440430,309.984314 321.295471,324.707123 315.486969,339.561981 
	C315.050293,340.678711 316.515930,342.539276 317.097260,344.054077 
	C297.599091,356.990265 276.811920,360.397247 254.252350,352.248077 
	C257.321045,343.019196 260.589142,334.046082 263.963196,325.113037 
	C267.872589,314.762604 271.886200,304.451599 275.832336,294.114960 
	C277.704132,289.211823 279.417572,284.244324 281.441376,279.405792 
	C281.959839,278.166321 283.384918,277.306091 285.024933,276.286255 
	C289.526459,281.196228 294.419678,279.936066 299.167999,278.306915 
	C304.455261,276.492798 304.636322,272.132629 303.876251,267.221039 
	C305.504944,269.168945 306.870148,271.049988 307.472534,273.149811 
	C308.513000,276.776794 310.566742,278.742523 314.316925,277.933441 
	C317.196930,277.312103 322.022156,276.498932 322.320831,275.027679 
	C322.952850,271.914673 322.058197,267.696930 320.187866,265.074921 
	C317.926239,261.904327 314.007111,259.916046 310.784027,257.399475 
	C319.162933,245.376602 314.856873,231.419449 302.011292,229.857971 
M329.402008,227.090683 
	C327.247955,226.633224 324.975128,225.584869 322.993103,225.983246 
	C322.087311,226.165314 321.386139,229.191055 321.351685,230.942047 
	C321.338745,231.599304 323.458954,232.830872 324.640869,232.874542 
	C327.604797,232.983978 329.558136,231.431564 329.821686,228.252762 
	C329.834839,228.094421 329.775543,227.930099 329.402008,227.090683 
z"/>
<path fill="#F3C0D2" opacity="1.000000" stroke="none" 
	d="
M367.007599,208.037415 
	C370.082550,199.751190 373.205078,191.482178 376.210907,183.170959 
	C377.561462,179.436539 378.678680,175.617752 379.950989,171.469849 
	C392.580994,173.935516 400.733521,182.593063 408.742584,191.960083 
	C421.353424,206.709152 421.338135,238.105927 409.214417,253.619339 
	C400.302246,265.023285 389.239105,272.810791 374.956085,275.984619 
	C361.263672,279.027222 351.330597,286.328156 347.777802,300.746735 
	C344.558868,313.810364 337.884460,325.169922 329.015198,335.110901 
	C325.917389,338.583008 321.514496,340.890717 317.402405,343.892120 
	C316.515930,342.539276 315.050293,340.678711 315.486969,339.561981 
	C321.295471,324.707123 327.440430,309.984314 333.338654,295.163818 
	C335.216064,290.446472 336.502533,285.496887 338.275024,280.733795 
	C339.289032,278.008881 340.737061,275.445526 342.307556,272.259094 
	C343.420349,269.472565 344.215302,267.236328 345.010223,265.000122 
	C345.461639,264.998413 345.913025,264.996735 346.993225,265.216888 
	C349.315094,269.176422 352.769318,268.256378 355.483521,267.860931 
	C359.955811,267.209381 364.315491,265.631317 366.375214,261.021942 
	C368.525391,256.210114 364.765991,253.246674 362.354797,250.044724 
	C361.079193,248.350708 359.135040,247.160080 357.178741,245.471146 
	C369.537994,242.488144 372.480774,237.442795 367.998627,227.183914 
	C366.320190,223.342270 367.120941,220.013840 370.396179,218.819229 
	C372.279816,218.132187 376.396118,219.950729 377.644196,221.859604 
	C380.602081,226.383408 382.835114,231.495468 384.669586,236.617416 
	C389.619598,250.438049 392.322113,251.386169 403.695374,242.562805 
	C408.401825,238.911545 408.336578,234.429932 403.452148,230.696991 
	C401.744324,229.391815 399.783905,228.403351 398.143433,227.026535 
	C393.870911,223.440750 389.092682,220.211487 385.681305,215.914886 
	C382.266357,211.613770 383.273682,209.735352 388.235260,207.341644 
	C390.934296,206.039505 393.191498,203.901855 391.627625,201.201218 
	C390.478119,199.216187 387.426270,197.373505 385.142822,197.273132 
	C382.841278,197.171967 380.321869,199.108398 378.111877,200.493454 
	C374.322754,202.868134 370.700134,205.508575 367.007599,208.037415 
z"/>
<path fill="#FCCDDE" opacity="1.000000" stroke="none" 
	d="
M144.971924,215.001968 
	C139.713699,217.233231 140.315552,222.902725 138.045319,226.884567 
	C136.771408,229.118912 135.819489,231.536819 134.215149,233.618011 
	C131.422470,229.151260 129.473770,224.708771 126.785927,220.770767 
	C119.933807,210.731644 111.872566,208.327911 101.373322,212.712387 
	C92.885605,216.256851 92.235497,218.093231 96.719421,226.065903 
	C97.368248,227.219559 98.167068,228.290482 98.918556,229.384537 
	C104.661865,237.746155 108.838394,246.513641 108.078033,257.141968 
	C107.674599,262.781281 111.380470,265.123047 116.965279,263.500275 
	C119.656021,262.718445 122.302498,261.784241 124.969025,260.919006 
	C121.955605,268.331909 118.858459,275.712494 115.979553,283.177277 
	C115.110626,285.430359 114.847351,287.917053 114.149429,290.653992 
	C102.181389,283.271851 94.311226,272.304749 89.351906,259.382172 
	C78.865425,232.057388 85.806938,200.516617 108.046638,180.676270 
	C119.932541,170.072693 133.987015,163.480255 150.303604,163.020355 
	C155.352173,162.878036 160.415451,163.256790 165.773163,163.668442 
	C164.246780,165.876968 161.715286,167.507950 160.716278,169.805313 
	C156.855118,178.684677 153.524338,187.793411 149.890717,196.774124 
	C149.226395,198.416031 147.787384,199.763031 147.224533,201.422089 
	C146.702972,202.959396 146.875580,204.732193 146.875504,207.117615 
	C146.329636,210.223282 145.650772,212.612625 144.971924,215.001968 
z"/>
<path fill="#FACADB" opacity="1.000000" stroke="none" 
	d="
M186.938019,158.810883 
	C183.843506,152.088013 185.515457,146.501480 189.963745,141.605209 
	C193.877274,137.297577 198.994583,136.159241 204.511566,137.398163 
	C211.627975,138.996231 215.944244,144.755920 216.001480,152.210632 
	C216.049805,158.501862 211.380112,165.321518 205.992218,166.828278 
	C198.026474,169.055923 191.060959,166.230682 186.938019,158.810883 
z"/>
<path fill="#F3C0D2" opacity="1.000000" stroke="none" 
	d="
M373.367889,297.134430 
	C381.423431,293.658722 387.783020,295.008118 391.858490,300.763397 
	C396.174866,306.858887 395.928284,313.868378 391.446960,319.109497 
	C387.274841,323.988953 381.781433,325.316864 376.152405,323.610382 
	C370.887115,322.014130 366.977325,317.863342 366.183990,312.155487 
	C365.329529,306.007446 367.195557,300.631287 373.367889,297.134430 
z"/>
<path fill="#F7C6D8" opacity="1.000000" stroke="none" 
	d="
M288.885468,151.355103 
	C283.789307,146.251251 283.047729,142.627777 286.036407,138.543915 
	C289.261292,134.137299 294.001129,133.325790 298.629303,136.387894 
	C302.756378,139.118454 303.754486,143.927200 301.157898,148.570251 
	C298.913788,152.583054 293.832245,153.874298 288.885468,151.355103 
z"/>
<path fill="#FCFCF1" opacity="1.000000" stroke="none" 
	d="
M301.567352,229.899719 
	C314.856873,231.419449 319.162933,245.376602 310.784027,257.399475 
	C314.007111,259.916046 317.926239,261.904327 320.187866,265.074921 
	C322.058197,267.696930 322.952850,271.914673 322.320831,275.027679 
	C322.022156,276.498932 317.196930,277.312103 314.316925,277.933441 
	C310.566742,278.742523 308.513000,276.776794 307.472534,273.149811 
	C306.870148,271.049988 305.504944,269.168945 303.876251,267.221039 
	C304.636322,272.132629 304.455261,276.492798 299.167999,278.306915 
	C294.419678,279.936066 289.526459,281.196228 285.351868,276.142456 
	C285.036011,272.080353 285.017181,268.176697 285.014893,264.273010 
	C285.009888,255.777542 285.013336,247.282074 285.013336,238.999329 
	C281.136353,238.999329 278.694336,239.069763 276.257690,238.985184 
	C270.561188,238.787415 266.270599,242.551315 265.177216,248.794724 
	C264.468109,252.843735 267.658966,256.432495 273.255341,257.880310 
	C280.894531,259.856628 283.311523,263.223297 281.666473,269.596344 
	C280.128296,275.555420 273.933228,279.143402 267.659821,277.708618 
	C260.120819,275.984344 255.399521,270.191742 254.965210,262.452576 
	C254.479584,253.798843 255.275101,245.629105 260.750458,238.290741 
	C266.467041,230.628998 273.865326,228.238068 283.050049,230.843033 
	C286.495422,231.820190 290.495972,230.934830 294.235565,230.744583 
	C296.539185,230.627380 298.827972,230.219070 301.567352,229.899719 
M299.594391,237.471664 
	C298.507141,241.017395 298.398499,244.405075 301.933350,246.641968 
	C302.360077,246.912018 304.613190,245.604553 304.727295,244.836273 
	C305.255768,241.278290 304.314056,238.252182 299.594391,237.471664 
z"/>
<path fill="#FCFCF1" opacity="1.000000" stroke="none" 
	d="
M229.080292,226.623840 
	C231.297104,220.865799 234.950836,217.111435 240.963150,217.113480 
	C247.438263,217.115677 253.597214,218.706879 257.562439,224.439880 
	C258.384979,225.629120 258.602570,228.244217 257.841187,229.250839 
	C257.005157,230.356201 254.617340,230.953857 253.082367,230.700790 
	C251.033432,230.362976 249.232422,228.698349 247.179031,228.156036 
	C245.463593,227.703003 243.538315,228.044464 241.705978,228.034073 
	C241.763657,229.924240 241.205002,232.141174 241.999893,233.640488 
	C244.013245,237.438034 246.856796,240.790268 248.941299,244.556900 
	C250.606934,247.566666 252.653763,250.882614 252.786438,254.133850 
	C253.354523,268.053711 245.170181,272.172913 232.629044,269.526031 
	C223.388702,267.575806 217.640915,258.799225 217.947205,249.505539 
	C218.084671,245.334595 219.867035,242.325226 223.873642,241.293488 
	C227.784271,240.286469 230.544464,242.285248 232.396500,245.752258 
	C233.127945,247.121506 234.144928,248.338211 235.542770,249.369522 
	C235.061813,241.354218 227.366455,235.565521 229.080292,226.623840 
z"/>
<path fill="#FCFCF2" opacity="1.000000" stroke="none" 
	d="
M125.135941,260.632935 
	C122.302498,261.784241 119.656021,262.718445 116.965279,263.500275 
	C111.380470,265.123047 107.674599,262.781281 108.078033,257.141968 
	C108.838394,246.513641 104.661865,237.746155 98.918556,229.384537 
	C98.167068,228.290482 97.368248,227.219559 96.719421,226.065903 
	C92.235497,218.093231 92.885605,216.256851 101.373322,212.712387 
	C111.872566,208.327911 119.933807,210.731644 126.785927,220.770767 
	C129.473770,224.708771 131.422470,229.151260 133.863800,233.682648 
	C136.773956,248.876480 135.073944,253.459869 125.135941,260.632935 
M115.630692,236.031815 
	C119.350899,238.075134 120.645042,235.606689 119.775711,232.912079 
	C118.497635,228.950470 116.222572,225.264709 114.011841,221.683914 
	C113.497688,220.851105 111.531479,220.914780 110.233391,220.565964 
	C109.950401,221.915619 109.048729,223.532333 109.495392,224.567017 
	C111.116508,228.322327 113.189529,231.882568 115.630692,236.031815 
z"/>
<path fill="#FCFCF1" opacity="1.000000" stroke="none" 
	d="
M144.978912,215.421219 
	C145.650772,212.612625 146.329636,210.223282 147.021652,207.458038 
	C154.218018,200.933304 157.264618,201.347412 161.837143,209.871826 
	C166.778046,219.082993 171.442459,228.454636 175.845779,237.933578 
	C176.963013,240.338608 177.126953,243.484467 176.763260,246.158554 
	C176.570343,247.576889 174.481400,249.041580 172.922577,249.878662 
	C171.544189,250.618835 169.701248,250.456924 168.086288,250.800735 
	C163.872849,251.697723 161.183411,250.122925 160.492462,245.855652 
	C159.832214,241.777893 159.309769,237.658432 159.067734,233.537277 
	C158.768448,228.441147 158.358322,228.124405 153.295120,230.687897 
	C154.404999,234.576187 155.675232,238.490845 156.627182,242.481430 
	C158.227386,249.189575 157.034485,251.002472 150.246521,252.365524 
	C148.150497,252.786392 145.974777,252.922119 143.830902,252.967026 
	C140.544418,253.035889 138.776428,251.235001 139.022980,248.004517 
	C139.298950,244.388504 139.795212,240.769684 140.489517,237.209381 
	C141.882584,230.065796 143.475494,222.961166 144.978912,215.421219 
M154.553162,221.927658 
	C155.699478,220.673126 157.864868,219.341217 157.776718,218.180435 
	C157.601501,215.872452 156.212601,213.645798 155.165329,211.462204 
	C155.130585,211.389725 152.512695,212.212219 152.535095,212.509247 
	C152.768326,215.602875 153.296082,218.674301 154.553162,221.927658 
z"/>
<path fill="#FCFCF1" opacity="1.000000" stroke="none" 
	d="
M199.115845,254.827118 
	C195.016541,253.844345 191.291824,253.024933 187.624039,252.001434 
	C184.481323,251.124420 183.287262,249.026917 184.568649,245.892548 
	C186.328735,241.587280 188.092621,237.279755 190.010757,233.043793 
	C192.911346,226.638168 193.108887,220.553238 188.497650,214.772659 
	C187.364777,213.352478 186.563187,211.672546 185.547455,210.153381 
	C183.683075,207.364899 183.462112,204.224640 186.757294,203.135208 
	C188.745331,202.477951 192.251236,203.625931 193.831680,205.206253 
	C195.945480,207.319916 197.011398,210.571899 198.238922,213.457718 
	C199.647659,216.769592 201.252731,218.075272 204.506302,215.347733 
	C207.166733,213.117386 209.953888,210.955551 212.959518,209.246338 
	C215.276733,207.928635 218.518250,207.050217 219.814423,210.291077 
	C220.431824,211.834717 219.226837,214.541351 218.100937,216.220764 
	C217.062973,217.769028 215.140930,218.863235 213.409836,219.784592 
	C205.042786,224.237762 202.821259,228.490067 204.079163,237.545898 
	C204.579346,241.146851 204.676804,244.802200 205.022705,248.426559 
	C205.412521,252.511185 203.790588,254.818130 199.115845,254.827118 
z"/>
<path fill="#FCFCF1" opacity="1.000000" stroke="none" 
	d="
M366.813995,208.303650 
	C370.700134,205.508575 374.322754,202.868134 378.111877,200.493454 
	C380.321869,199.108398 382.841278,197.171967 385.142822,197.273132 
	C387.426270,197.373505 390.478119,199.216187 391.627625,201.201218 
	C393.191498,203.901855 390.934296,206.039505 388.235260,207.341644 
	C383.273682,209.735352 382.266357,211.613770 385.681305,215.914886 
	C389.092682,220.211487 393.870911,223.440750 398.143433,227.026535 
	C399.783905,228.403351 401.744324,229.391815 403.452148,230.696991 
	C408.336578,234.429932 408.401825,238.911545 403.695374,242.562805 
	C392.322113,251.386169 389.619598,250.438049 384.669586,236.617416 
	C382.835114,231.495468 380.602081,226.383408 377.644196,221.859604 
	C376.396118,219.950729 372.279816,218.132187 370.396179,218.819229 
	C367.120941,220.013840 366.320190,223.342270 367.998627,227.183914 
	C372.480774,237.442795 369.537994,242.488144 357.178741,245.471146 
	C359.135040,247.160080 361.079193,248.350708 362.354797,250.044724 
	C364.765991,253.246674 368.525391,256.210114 366.375214,261.021942 
	C364.315491,265.631317 359.955811,267.209381 355.483521,267.860931 
	C352.769318,268.256378 349.315094,269.176422 347.331787,265.213623 
	C344.229858,253.950104 341.965302,242.808411 336.060181,232.719742 
	C332.666351,226.921509 334.871429,223.703995 341.338623,221.844040 
	C343.955353,221.091507 346.276367,218.152374 348.719543,218.167862 
	C356.650269,218.218094 361.533539,213.376617 366.813995,208.303650 
M355.502014,226.066345 
	C353.925415,225.689301 352.348816,225.312256 350.772217,224.935196 
	C350.936493,226.757645 350.926300,228.621063 351.340668,230.384766 
	C351.539703,231.231766 352.407349,232.137924 353.212311,232.571976 
	C354.233917,233.122864 355.850739,233.797867 356.566589,233.361755 
	C357.372009,232.871094 357.866913,231.159134 357.749847,230.057877 
	C357.622345,228.858566 356.637238,227.750412 355.502014,226.066345 
z"/>
<path fill="#FCFCF1" opacity="1.000000" stroke="none" 
	d="
M344.853333,264.677185 
	C344.215302,267.236328 343.420349,269.472565 342.314880,271.888123 
	C339.797180,272.735291 337.613556,273.497925 335.378357,274.052826 
	C329.058716,275.621704 325.609161,273.286652 325.048035,266.845795 
	C324.277130,257.997253 323.536835,249.136795 323.222382,240.265900 
	C323.163330,238.599762 325.051666,235.557343 326.237366,235.456604 
	C328.077881,235.300232 331.032318,236.621994 331.866760,238.192566 
	C336.421448,246.765335 340.472321,255.605804 344.853333,264.677185 
z"/>
<path fill="#FCFCF1" opacity="1.000000" stroke="none" 
	d="
M329.575989,227.429626 
	C329.775543,227.930099 329.834839,228.094421 329.821686,228.252762 
	C329.558136,231.431564 327.604797,232.983978 324.640869,232.874542 
	C323.458954,232.830872 321.338745,231.599304 321.351685,230.942047 
	C321.386139,229.191055 322.087311,226.165314 322.993103,225.983246 
	C324.975128,225.584869 327.247955,226.633224 329.575989,227.429626 
z"/>
<path fill="#F7C6D8" opacity="1.000000" stroke="none" 
	d="
M299.950073,237.316193 
	C304.314056,238.252182 305.255768,241.278290 304.727295,244.836273 
	C304.613190,245.604553 302.360077,246.912018 301.933350,246.641968 
	C298.398499,244.405075 298.507141,241.017395 299.950073,237.316193 
z"/>
<path fill="#FCCDDE" opacity="1.000000" stroke="none" 
	d="
M115.361389,235.774109 
	C113.189529,231.882568 111.116508,228.322327 109.495392,224.567017 
	C109.048729,223.532333 109.950401,221.915619 110.233391,220.565948 
	C111.531479,220.914780 113.497688,220.851105 114.011841,221.683914 
	C116.222572,225.264709 118.497635,228.950470 119.775711,232.912079 
	C120.645042,235.606689 119.350899,238.075134 115.361389,235.774109 
z"/>
<path fill="#FCCDDE" opacity="1.000000" stroke="none" 
	d="
M154.147644,221.839767 
	C153.296082,218.674301 152.768326,215.602875 152.535095,212.509247 
	C152.512695,212.212219 155.130585,211.389725 155.165329,211.462204 
	C156.212601,213.645798 157.601501,215.872452 157.776718,218.180435 
	C157.864868,219.341217 155.699478,220.673126 154.147644,221.839767 
z"/>
<path fill="#F7C6D8" opacity="1.000000" stroke="none" 
	d="
M355.764008,226.334427 
	C356.637238,227.750412 357.622345,228.858566 357.749847,230.057877 
	C357.866913,231.159134 357.372009,232.871094 356.566589,233.361755 
	C355.850739,233.797867 354.233917,233.122864 353.212311,232.571976 
	C352.407349,232.137924 351.539703,231.231766 351.340668,230.384766 
	C350.926300,228.621063 350.936493,226.757645 350.772217,224.935211 
	C352.348816,225.312256 353.925415,225.689301 355.764008,226.334427 
z"/>
</svg>